<?xml version="1.0" encoding="utf-8"?>
<!-- Generator: Adobe Illustrator 19.0.0, SVG Export Plug-In . SVG Version: 6.00 Build 0)  -->
<svg version="1.1" id="Layer_1" xmlns="http://www.w3.org/2000/svg" xmlns:xlink="http://www.w3.org/1999/xlink" x="0px" y="0px"
	 viewBox="0 0 379.3 379.3" style="enable-background:new 0 0 379.3 379.3;" xml:space="preserve">
<style type="text/css">
	.st0{fill:#939598;stroke:#000000;stroke-width:5;stroke-miterlimit:10;}
	.st1{fill:#58595B;stroke:#000000;stroke-width:3;stroke-miterlimit:10;}
	.st2{fill:none;stroke:#FFFFFF;stroke-width:6;stroke-miterlimit:10;}
	.st3{fill:none;stroke:#FFFFFF;stroke-width:4;stroke-miterlimit:10;}
</style>
<path id="XMLID_2_" class="st0" d="M106.8,180.1c-1.8-12.4-4.9-45.1,13.3-78.4C127,89,148.7,55,188.3,46.7
	c29.4-6.1,64.2,9.4,72.4,38.3c2.6,9.1,2.2,13.5,3.5,28.2c1.5,17.3,6.2,40.2,19.1,66.9l34.5-0.3c1.2-18.8,1.7-65.9-28.5-110.3
	c-5.1-7.6-40-56.6-81.7-60.1c-10.1-0.8-20.3,0.3-30.4,1.5c-12.5,1.6-25.3,3.5-36.5,9.2c-6.3,3.2-19.8,10.7-35.4,34.9
	c-28.7,44.4-40.6,106.4-43.8,125"/>
<path id="XMLID_1_" class="st1" d="M45.2,176c16.3-0.6,32.6-1.2,48.9-1.7c8.8-0.3,17.7-0.6,26.4,1.1c10.3,2.1,20.4,7,30.8,6.8
	c6.5-0.1,12.8-2.3,19.3-3.5c8.6-1.7,17.4-1.7,26.1-1.7c21.1-0.1,42.2-0.2,63.3-0.3c10.4,0,20.7-0.1,31.1-0.1
	c11.8-0.1,23.7-0.1,35.3,2.4c-1.9,11.6-3.9,23.6-1.7,35.1c1.1,5.8,3.2,11.4,4.5,17.2c2.7,12.5,1.5,25.6,2,38.4
	c1.3,32.2,13.6,65,5,95.6c-0.4,1.4-0.8,2.8-1.8,3.7c-1.2,1.1-2.8,1.3-4.3,1.3c-57.3,2.4-114.5-15.1-171.6-9.5
	c-14,1.4-27.9,4.2-41.9,4.6c-23.5,0.8-47.3-5-70.5,0c-12.9-61.2,9.9-126.2,0-188.2"/>
<path id="XMLID_3_" class="st2" d="M68.8,231.3c-0.6,37.7-1.2,75.4-1.7,113.1c-0.5-7.4-1.1-14.9-1.6-22.3
	c-0.6-8.4-0.9-17.9,4.9-24.1c4.7-5.1,12.1-6.5,19-6.2c5,0.2,10.1,1.1,14.2,3.9c7.1,4.8,9.9,14.5,7.7,22.8c-2.2,8.3-8.7,15-16.3,18.8
	c-7.6,3.8-16.3,5.1-24.9,5.2"/>
<path id="XMLID_4_" class="st2" d="M135.2,341.3c-1.8-45.5-0.5-91.2,3.9-136.6c10.6-3.9,23.4-1.9,31.6,5.9c8.1,7.8,10.5,21.4,4.6,31
	c-7.2,11.7-22.9,14.4-36.6,14.8"/>
<path id="XMLID_5_" class="st2" d="M225.7,201c-12.3-2.9-25,6-30.7,17.3c-5.7,11.4-5.9,24.5-5.9,37.2c0,23,0.6,47.1,11.8,67.2
	c5.1,9.1,14.3,17.8,24.5,15.8c6-1.2,10.8-6,13.4-11.6c2.6-5.6,3.2-11.8,3.3-17.9c0.3-9.9-0.4-19.9-2.2-29.7"/>
<path id="XMLID_6_" class="st3" d="M222,273.7c14.6,2.1,29.4,2.1,44,0"/>
<path id="XMLID_7_" class="st2" d="M270,200.7c4.7,47.4,7.2,94.9,7.5,142.5c-1.4-45.2-2.9-90.3-4.3-135.5c0-0.6,0-1.2,0.2-1.6
	c0.4-0.7,1.2-1,1.9-1.2c11.8-3.1,25.2,1.7,32.3,11.6c7.1,9.9,7.5,24.1,0.8,34.3c-6.6,10.2-19.8,15.6-31.7,13.1"/>
</svg>
