<?xml version="1.0" encoding="utf-8"?>
<!-- Generator: Adobe Illustrator 19.0.0, SVG Export Plug-In . SVG Version: 6.00 Build 0)  -->
<svg version="1.1" id="Layer_1" xmlns="http://www.w3.org/2000/svg" xmlns:xlink="http://www.w3.org/1999/xlink" x="0px" y="0px"
	 viewBox="0 0 379.3 379.3" style="enable-background:new 0 0 379.3 379.3;" xml:space="preserve">
<style type="text/css">
	.st0{fill:#939598;stroke:#000000;stroke-width:5;stroke-miterlimit:10;}
	.st1{fill:#58595B;stroke:#000000;stroke-width:3;stroke-miterlimit:10;}
	.st2{fill:none;stroke:#FFFFFF;stroke-width:15;stroke-miterlimit:10;}
</style>
<path id="XMLID_2_" class="st0" d="M106.8,180.1c-1.8-12.4-4.9-45.1,13.3-78.4C127,89,148.7,55,188.3,46.7
	c29.4-6.1,64.2,9.4,72.4,38.3c2.6,9.1,2.2,13.5,3.5,28.2c1.5,17.3,6.2,40.2,19.1,66.9l34.5-0.3c1.2-18.8,1.7-65.9-28.5-110.3
	c-5.1-7.6-40-56.6-81.7-60.1c-10.1-0.8-20.3,0.3-30.4,1.5c-12.5,1.6-25.3,3.5-36.5,9.2c-6.3,3.2-19.8,10.7-35.4,34.9
	c-28.7,44.4-40.6,106.4-43.8,125"/>
<path id="XMLID_1_" class="st1" d="M41.7,176c16.6-0.6,33.3-1.2,49.9-1.7c9-0.3,18-0.6,26.9,1.1c10.5,2.1,20.8,7,31.5,6.8
	c6.6-0.1,13.1-2.3,19.6-3.5c8.8-1.7,17.8-1.7,26.7-1.7c21.5-0.1,43.1-0.2,64.6-0.3c10.6,0,21.2-0.1,31.7-0.1c12-0.1,24.1-0.1,36,2.4
	c-2,11.6-3.9,23.6-1.7,35.1c1.1,5.8,3.3,11.4,4.6,17.2c2.8,12.5,1.5,25.6,2,38.4c1.3,32.2,13.9,65,5.2,95.6
	c-0.4,1.4-0.9,2.8-1.8,3.7c-1.2,1.1-2.8,1.3-4.4,1.3c-58.5,2.4-116.8-15.1-175.1-9.5c-14.3,1.4-28.4,4.2-42.7,4.6
	c-24,0.8-48.3-5-71.9,0c-13.2-61.2,10.1-126.2,0-188.2"/>
<path id="XMLID_3_" class="st2" d="M63.3,230.3c-0.6,37.7-1.2,75.4-1.7,113.1c-0.5-7.4-1.1-14.9-1.6-22.3
	c-0.6-8.4-0.9-17.9,4.9-24.1c4.7-5.1,12.1-6.5,19-6.2c5,0.2,10.1,1.1,14.2,3.9c7.1,4.8,9.9,14.5,7.7,22.8
	c-3.1,11.6-13.1,17.2-16.3,18.8c-14.1,7.1-28.3,1.4-30.7,0.4"/>
<path id="XMLID_4_" class="st2" d="M128.2,345.8c-1.8-45.5-0.5-91.2,3.9-136.6c10.6-3.9,23.4-1.9,31.6,5.9c8.1,7.8,10.5,21.4,4.6,31
	c-7.2,11.7-22.9,14.4-36.6,14.8"/>
<path id="XMLID_5_" class="st2" d="M234.2,207.7c-6,1.6-18.6,5.9-29,17.5c-10,11.2-12.5,23.2-14.5,33.5c-1.4,7.4-7.8,40.2,11.2,65.1
	c3.3,4.4,13.6,18,24.5,15.8c6-1.2,10.8-6,13.4-11.6c2-4.3,3.2-8.5,3.3-17.9c0.1-7.3-0.2-17.5-2.2-29.7"/>
<path id="XMLID_6_" class="st2" d="M216,268.2c14.6,2.1,29.4,2.1,44,0"/>
<path id="XMLID_7_" class="st2" d="M271.5,207.2c4.7,47.4,7.2,94.9,7.5,142.5c-1.4-45.2-2.9-90.3-4.3-135.5c0-0.6,0-1.2,0.2-1.6
	c0.4-0.7,1.2-1,1.9-1.2c11.8-3.1,25.2,1.7,32.3,11.6c7.1,9.9,7.5,24.1,0.8,34.3s-19.8,15.6-31.7,13.1"/>
</svg>
